<?xml version="1.0" standalone="no"?>
<!DOCTYPE svg PUBLIC "-//W3C//DTD SVG 20010904//EN"
 "http://www.w3.org/TR/2001/REC-SVG-20010904/DTD/svg10.dtd">
<svg version="1.0" xmlns="http://www.w3.org/2000/svg"
 width="512.000000pt" height="512.000000pt" viewBox="0 0 512.000000 512.000000"
 preserveAspectRatio="xMidYMid meet">

<g transform="translate(0.000000,512.000000) scale(0.100000,-0.100000)"
fill="#000000" stroke="none">
<path d="M222 5102 c-141 -51 -231 -190 -220 -337 11 -127 -42 -70 1071 -1182
l1022 -1023 -1026 -1027 c-1149 -1150 -1064 -1054 -1064 -1208 0 -60 6 -92 22
-127 30 -66 96 -133 162 -165 47 -24 69 -28 136 -28 154 0 58 -84 1208 1064
l1027 1026 1028 -1026 c1150 -1149 1054 -1065 1207 -1063 99 0 174 33 234 100
63 72 84 126 85 219 2 153 86 57 -1063 1207 l-1026 1028 1026 1028 c1148 1149
1064 1053 1064 1207 0 67 -4 89 -28 136 -32 66 -99 132 -165 162 -35 16 -67
22 -127 22 -154 0 -58 85 -1208 -1064 l-1027 -1026 -1023 1022 c-858 859
-1030 1026 -1072 1044 -70 31 -174 35 -243 11z"/>
</g>
</svg>
