<?xml version="1.0" standalone="no"?>
<!DOCTYPE svg PUBLIC "-//W3C//DTD SVG 20010904//EN"
 "http://www.w3.org/TR/2001/REC-SVG-20010904/DTD/svg10.dtd">
<svg version="1.0" xmlns="http://www.w3.org/2000/svg"
 width="512.000000pt" height="512.000000pt" viewBox="0 0 512.000000 512.000000"
 preserveAspectRatio="xMidYMid meet">

<g transform="translate(0.000000,512.000000) scale(0.100000,-0.100000)"
fill="#000000" stroke="none">
<path d="M3115 4244 c-107 -55 -153 -178 -106 -279 13 -27 205 -225 590 -610
314 -313 571 -573 571 -577 0 -5 -853 -8 -1895 -8 -1688 0 -1900 -2 -1933 -15
-169 -71 -169 -319 0 -390 33 -13 245 -15 1933 -15 1042 0 1895 -3 1895 -7 0
-4 -263 -271 -584 -593 l-584 -585 -11 -55 c-33 -160 109 -292 267 -250 44 12
98 64 825 789 477 475 787 792 799 816 28 54 28 136 0 190 -31 59 -1546 1570
-1594 1590 -48 19 -135 19 -173 -1z"/>
</g>
</svg>
