<?xml version="1.0" standalone="no"?>
<!DOCTYPE svg PUBLIC "-//W3C//DTD SVG 20010904//EN"
 "http://www.w3.org/TR/2001/REC-SVG-20010904/DTD/svg10.dtd">
<svg version="1.0" xmlns="http://www.w3.org/2000/svg"
 width="512.000000pt" height="512.000000pt" viewBox="0 0 512.000000 512.000000"
 preserveAspectRatio="xMidYMid meet">

<g transform="translate(0.000000,512.000000) scale(0.100000,-0.100000)"
fill="#000000" stroke="none">
<path d="M1641 3481 c-311 -301 -567 -553 -569 -559 -6 -19 122 -115 213 -158
134 -65 197 -79 350 -78 149 0 239 20 359 80 92 47 147 88 221 166 74 77 94
105 139 194 121 242 111 534 -27 769 -38 66 -95 135 -110 134 -7 0 -266 -247
-576 -548z"/>
<path d="M3830 3354 c-199 -43 -369 -198 -431 -394 -24 -78 -29 -218 -10 -300
77 -325 418 -518 736 -416 355 114 509 523 318 845 -77 129 -226 234 -378 266
-86 18 -150 18 -235 -1z"/>
<path d="M805 2429 c-352 -66 -616 -342 -664 -692 -6 -44 -11 -240 -11 -450 0
-351 1 -374 20 -404 10 -17 27 -36 37 -41 11 -6 580 -12 1428 -16 1113 -5
1417 -3 1444 7 19 6 44 25 55 40 21 28 21 37 21 455 -1 410 -2 430 -23 507
-78 280 -284 491 -562 577 l-75 23 -810 1 c-471 1 -831 -2 -860 -7z"/>
<path d="M3374 1968 l-51 -9 21 -77 c19 -73 20 -104 21 -570 l0 -492 778 2
779 3 34 38 35 38 -3 307 c-4 286 -5 312 -26 374 -48 142 -160 271 -297 338
-114 57 -148 60 -720 59 -286 -1 -543 -6 -571 -11z"/>
</g>
</svg>
